<?xml version="1.0" encoding="UTF-8"?>
<svg id="Layer_1" data-name="Layer 1" xmlns="http://www.w3.org/2000/svg" xmlns:xlink="http://www.w3.org/1999/xlink" viewBox="0 0 500 500">
  <defs>
    <style>
      .cls-1 {
        fill: #a37dcc;
      }

      .cls-1, .cls-2, .cls-3, .cls-4, .cls-5, .cls-6 {
        stroke-width: 0px;
      }

      .cls-7 {
        clip-path: url(#clippath);
      }

      .cls-2 {
        fill: none;
      }

      .cls-3 {
        fill: #f2853b;
      }

      .cls-4 {
        fill: #f7ca3c;
      }

      .cls-5 {
        fill: #ef3a6e;
      }

      .cls-6 {
        fill: #4c8dd3;
      }
    </style>
    <clipPath id="clippath">
      <rect class="cls-2" x="-.44" width="534.02" height="430.95"/>
    </clipPath>
  </defs>
  <g class="cls-7">
    <g>
      <path class="cls-5" d="M457.85-242.66c-14.32,8.47-27.58,17.81-39.73,27.6-12.22,9.78-23.08,20.03-33.17,30.3-2.5,2.57-5.06,5.14-7.39,7.72-2.36,2.57-4.79,5.15-7.08,7.72l-6.76,7.71c-1.15,1.29-2.18,2.56-3.26,3.84l-3.21,3.83c-1.06,1.27-2.16,2.56-3.18,3.82l-3.07,3.79c-2.04,2.53-4.11,5.07-6.04,7.56l-5.85,7.49-5.64,7.39c-7.4,9.78-14.41,19.32-21.19,28.55-6.74,9.17-13.26,18-19.66,26.44l-4.78,6.24-4.74,6.03-1.18,1.51-1.18,1.45-2.35,2.89-2.35,2.9-2.34,2.77-2.34,2.77-1.17,1.39-1.17,1.32-4.67,5.28-4.66,5-1.16,1.25-1.17,1.17-2.33,2.36c-.78.78-1.55,1.6-2.33,2.36l-2.34,2.2c-1.56,1.46-3.11,3.03-4.68,4.34-1.57,1.35-3.12,2.79-4.69,4.12-1.57,1.26-3.14,2.54-4.71,3.84-6.32,4.92-12.69,9.19-19.31,12.97-6.61,3.69-14.26,7.1-22.88,10.24-8.62,3.14-18.2,6.01-28.55,8.79-10.35,2.78-21.47,5.47-33.2,8.4l-8.93,2.26-9.15,2.4-4.66,1.28-4.72,1.31c-1.61.46-3.22.92-4.85,1.41-1.62.48-3.24.96-4.86,1.47-12.99,4.02-26.14,8.76-39.35,14.65-13.2,5.89-26.48,12.98-39.38,21.82-12.88,8.83-25.42,19.48-36.39,32.2-5.46,6.35-10.58,13.21-15.01,20.41-2.15,3.61-4.39,7.18-6.2,10.89l-2.81,5.53c-.85,1.86-1.66,3.72-2.47,5.58-3.29,7.46-5.75,14.93-7.93,22.32-.51,1.84-.96,3.66-1.43,5.49l-.69,2.74-.34,1.37-.28,1.35-1.12,5.4c-.18.9-.38,1.8-.54,2.69l-.44,2.65c-2.41,14.15-3.44,27.57-3.94,40.3-.47,12.71-.42,24.74-.39,36.24.03,11.49.07,22.46-.32,32.85-.8,20.73-3.22,39.19-9.74,54.24-.41.94-.78,1.92-1.22,2.84l-1.38,2.72-.68,1.38c-.21.47-.5.88-.75,1.33-.52.88-.99,1.78-1.54,2.66-2.17,3.52-4.74,7.01-7.6,10.47-2.84,3.47-6.14,6.86-9.63,10.23-3.49,3.37-7.31,6.67-11.34,9.94-4.01,3.27-8.25,6.5-12.68,9.7-4.42,3.22-8.95,6.39-13.7,9.66-9.45,6.51-19.39,13.23-29.32,20.61-4.97,3.72-9.94,7.6-14.83,11.71-4.89,4.13-9.7,8.54-14.33,13.21l-3.44,3.56-3.34,3.7c-1.12,1.21-2.17,2.54-3.25,3.81l-1.6,1.93c-.53.65-1.07,1.35-1.6,2.02-4.22,5.45-7.98,11.19-11.28,17.19-6.57,11.99-11.33,25.11-13.3,39.04-.5,3.47-.79,7-.89,10.54-.1,3.54-.01,7.11.34,10.67.35,3.56.88,7.11,1.69,10.61.81,3.5,1.85,6.95,3.11,10.3l-5.63,1.77c-1.42-3.59-2.6-7.29-3.55-11.05-.94-3.76-1.58-7.58-2.02-11.41-.44-3.83-.61-7.67-.57-11.48.04-3.81.28-7.6.75-11.33,1.84-14.95,6.65-29,13.38-41.89,3.38-6.44,7.26-12.63,11.64-18.51.55-.73,1.11-1.48,1.66-2.19l1.65-2.07c1.11-1.37,2.19-2.79,3.35-4.09l3.44-3.97,3.54-3.81c4.76-5,9.68-9.72,14.67-14.13,4.99-4.39,10.03-8.52,15.05-12.47,10.02-7.83,19.93-14.92,29.17-21.69l3.44-2.53,3.33-2.49,3.26-2.47,1.62-1.23,1.57-1.23c2.13-1.64,4.14-3.28,6.16-4.91,1.95-1.64,3.94-3.26,5.77-4.9,1.9-1.63,3.63-3.27,5.39-4.89l2.51-2.45c.85-.81,1.59-1.64,2.39-2.45,3.09-3.26,5.95-6.49,8.3-9.71,2.37-3.21,4.42-6.37,6.05-9.47.41-.77.75-1.56,1.14-2.32.18-.39.4-.74.55-1.15l.48-1.2c.33-.79.66-1.58,1-2.35.31-.8.56-1.66.86-2.47l.44-1.22c.15-.4.3-.8.41-1.25l.74-2.58.38-1.28.31-1.36.64-2.69c.21-.9.35-1.89.54-2.82l.27-1.41c.09-.47.2-.92.25-1.44l.43-2.98.23-1.48.17-1.56c.96-8.25,1.34-17.39,1.34-27.31,0-9.94-.38-20.69-.75-32.16-.36-11.49-.74-23.72-.55-36.91.22-13.22,1-27.42,3.34-42.72l.43-2.86c.15-.96.35-1.95.53-2.93l1.12-5.88.29-1.47.35-1.51.71-3.01c.48-2.01.94-4.01,1.48-6.04l1.78-6.15.92-3.08c.3-1.02.7-2.08,1.04-3.11l2.21-6.24.56-1.56c.2-.52.42-1.05.63-1.57l1.3-3.14c.88-2.09,1.75-4.18,2.69-6.27,1-2.08,2.03-4.17,3.06-6.24,1.99-4.18,4.44-8.24,6.82-12.32,1.17-2.05,2.5-4.05,3.81-6.05,1.3-2.02,2.7-3.95,4.08-5.9,1.38-1.96,2.84-3.82,4.28-5.72,1.45-1.88,2.97-3.69,4.47-5.52,12.18-14.47,26.03-26.53,40.12-36.48,14.12-9.96,28.51-17.91,42.66-24.53,14.17-6.61,28.15-11.93,41.83-16.46,1.72-.57,3.42-1.12,5.12-1.66,1.71-.55,3.4-1.07,5.09-1.59l9.74-2.92,9.4-2.71,9.09-2.55c11.88-3.3,22.88-6.31,32.82-9.35,9.94-3.04,18.82-6.11,26.42-9.33,7.61-3.21,13.9-6.56,18.89-9.93,5.02-3.47,9.84-7.29,14.76-11.72,1.23-1.18,2.46-2.34,3.7-3.47.31-.27.62-.6.93-.92l.93-.95,1.87-1.88c1.24-1.17,2.52-2.65,3.78-3.98l1.9-2.02,1.93-2.19,1.94-2.19.97-1.09.98-1.18,3.94-4.69,4.01-5.01,1.01-1.25,1.02-1.33,2.05-2.66,2.05-2.65,2.09-2.81,2.09-2.8,1.05-1.41,1.07-1.48,4.27-5.89,4.37-6.16c5.89-8.36,12-17.22,18.43-26.55,6.49-9.4,13.31-19.23,20.64-29.44l5.61-7.74,5.87-7.9c1.92-2.62,4.05-5.33,6.12-8.02l3.12-4.04c1.03-1.34,2.17-2.73,3.26-4.09l3.3-4.1c1.12-1.37,2.17-2.72,3.36-4.12l7.02-8.32c.57-.69,1.2-1.39,1.82-2.09l1.86-2.1,3.74-4.2c2.44-2.79,5.15-5.63,7.8-8.44,10.7-11.27,22.36-22.64,35.7-33.64,13.27-11,27.9-21.62,43.86-31.31l17.49,33.61Z"/>
      <path class="cls-3" d="M484.08-192.23c-11.86,6.63-23.05,14.06-33.55,22.02-10.54,7.94-20.19,16.52-29.37,25.28-4.63,4.37-8.97,8.86-13.34,13.33l-6.36,6.78c-2.11,2.26-4.12,4.55-6.19,6.82-8.14,9.12-15.94,18.32-23.44,27.47-7.51,9.15-14.81,18.25-22.02,27.22-7.2,8.94-14.34,17.73-21.52,26.28-7.17,8.57-14.42,16.78-21.82,24.67l-2.78,2.94-1.39,1.47-1.41,1.42-5.64,5.69-5.74,5.47-1.44,1.37-1.46,1.3-2.93,2.61c-.98.87-1.95,1.76-2.93,2.61l-2.99,2.48c-2,1.64-3.96,3.37-6.01,4.88-2.04,1.54-4.05,3.16-6.11,4.66l-6.24,4.39c-8.41,5.65-17.11,10.59-26.13,14.85-18.07,8.38-38.7,13.93-60.6,18.67-10.96,2.38-22.25,4.59-33.77,6.98l-8.69,1.84-8.77,1.95c-2.95.7-5.86,1.35-8.85,2.09-2.98.73-5.97,1.5-8.95,2.32-11.93,3.24-23.86,7.11-35.63,11.93-11.76,4.81-23.38,10.61-34.47,17.75-11.07,7.14-21.62,15.67-30.8,25.79-4.57,5.06-8.84,10.48-12.56,16.23-1.81,2.89-3.72,5.73-5.27,8.74l-2.42,4.47c-.74,1.51-1.44,3.04-2.16,4.56-2.89,6.08-5.12,12.31-7.17,18.53-.48,1.56-.91,3.12-1.36,4.68l-.67,2.34-.33,1.17-.28,1.17-1.12,4.67c-.18.78-.38,1.56-.54,2.33l-.46,2.33c-2.53,12.42-3.92,24.67-4.85,36.65-1.78,23.95-1.81,46.99-3.73,69.11-.98,11.03-2.43,21.81-4.8,32.16l-.43,1.95-.51,1.91-1.01,3.82c-.34,1.27-.77,2.49-1.15,3.74-.41,1.24-.75,2.51-1.2,3.72l-1.36,3.63-.67,1.82-.77,1.76-1.54,3.53c-.24.6-.53,1.17-.83,1.73l-.87,1.7c-.59,1.13-1.14,2.29-1.76,3.41l-1.95,3.28-.97,1.65c-.31.56-.7,1.06-1.05,1.6-.72,1.05-1.4,2.13-2.15,3.16-2.97,4.17-6.33,8.14-9.92,11.98-3.58,3.85-7.53,7.48-11.62,11.01-4.09,3.53-8.42,6.9-12.9,10.16-4.46,3.28-9.08,6.44-13.8,9.54-4.72,3.11-9.51,6.15-14.41,9.21-9.76,6.11-19.74,12.28-29.55,18.99-4.9,3.37-9.75,6.88-14.51,10.58-4.75,3.71-9.37,7.66-13.82,11.82-4.48,4.15-8.63,8.65-12.64,13.37-3.98,4.79-7.56,9.87-10.73,15.2-6.32,10.66-11.01,22.38-13.18,34.76-.55,3.09-.91,6.22-1.1,9.36-.19,3.14-.22,6.31,0,9.47.21,3.16.57,6.31,1.19,9.42.62,3.11,1.44,6.18,2.45,9.18l-5.63,1.77c-1.18-3.24-2.14-6.56-2.89-9.93-.75-3.37-1.23-6.79-1.53-10.22-.3-3.43-.36-6.86-.22-10.27.13-3.41.44-6.81.96-10.15,2.03-13.41,6.77-26.06,13.26-37.61,3.26-5.78,6.95-11.3,11.09-16.53.52-.65,1.04-1.31,1.56-1.94l1.58-1.86c1.06-1.23,2.09-2.51,3.2-3.67l3.29-3.57,3.39-3.43c4.57-4.5,9.32-8.75,14.16-12.74,4.85-3.97,9.78-7.73,14.72-11.33,9.89-7.16,19.84-13.69,29.4-20.07,4.8-3.2,9.41-6.32,13.94-9.51,4.52-3.17,8.89-6.38,13.05-9.65,4.17-3.27,8.17-6.59,11.86-10.01,3.69-3.42,7.21-6.89,10.29-10.49,3.1-3.59,5.94-7.24,8.37-10.98.61-.93,1.16-1.89,1.74-2.82.28-.48.6-.92.85-1.42l.78-1.47,1.57-2.91c.5-.99.93-2.03,1.4-3.03,7.47-16.1,10.35-35.5,11.54-56.65.58-10.6.72-21.69.86-33.19.14-11.51.25-23.44.87-35.91.64-12.48,1.8-25.51,4.24-39.08l.45-2.54c.16-.85.36-1.71.54-2.57l1.12-5.15.28-1.29.34-1.3.68-2.61c.47-1.74.9-3.48,1.41-5.22,2.14-7,4.52-14.06,7.68-21.05.78-1.75,1.55-3.5,2.37-5.24l2.68-5.18c1.73-3.48,3.85-6.81,5.89-10.18,4.19-6.71,9.03-13.1,14.19-19.02,10.38-11.86,22.25-21.8,34.53-30.07,12.3-8.27,25.03-14.93,37.74-20.46,12.73-5.53,25.48-9.98,38.11-13.74,1.58-.48,3.16-.93,4.73-1.38,1.58-.46,3.15-.89,4.72-1.31,1.59-.44,3.1-.83,4.63-1.23l4.58-1.19,9.02-2.25,8.85-2.12c11.66-2.75,22.84-5.28,33.39-7.93,10.55-2.64,20.48-5.41,29.61-8.52,9.13-3.1,17.46-6.54,24.88-10.39,7.42-3.94,14.57-8.43,21.58-13.6l5.22-4.02c1.73-1.38,3.44-2.88,5.16-4.3,1.73-1.38,3.42-3,5.12-4.52l2.55-2.3c.85-.79,1.69-1.63,2.53-2.44l2.53-2.44,1.27-1.22,1.26-1.29,5.02-5.16,4.99-5.42,1.25-1.35,1.24-1.42,2.49-2.83,2.49-2.83,2.48-2.94c1.65-1.98,3.31-3.87,4.97-5.94l4.97-6.09,4.99-6.28c6.66-8.47,13.39-17.29,20.28-26.39,6.92-9.14,14.03-18.53,21.47-28.1,7.43-9.57,15.31-19.36,23.66-29.19,2.13-2.46,4.18-4.92,6.38-7.39l6.63-7.4c2.25-2.46,4.61-4.92,6.91-7.38,2.28-2.46,4.75-4.91,7.18-7.35,9.78-9.76,20.24-19.46,31.9-28.63,11.6-9.18,24.17-17.89,37.67-25.74l17.49,33.61Z"/>
      <path class="cls-4" d="M510.32-141.81c-9.41,4.79-18.53,10.3-27.36,16.45-8.85,6.1-17.31,13.01-25.57,20.27-4.15,3.59-8.17,7.43-12.21,11.22l-5.97,5.85c-1.99,1.96-3.93,3.99-5.9,5.98-7.82,8.06-15.51,16.36-23.12,24.89-7.62,8.52-15.2,17.18-22.85,25.88-7.66,8.71-15.42,17.46-23.37,26.12-7.93,8.68-16.18,17.22-24.72,25.56l-3.22,3.12-1.61,1.56-1.65,1.53-6.62,6.1-6.82,5.94-1.71,1.48-1.76,1.44-3.52,2.87c-1.18.95-2.34,1.92-3.53,2.86l-3.64,2.76c-2.44,1.82-4.81,3.71-7.35,5.42-2.51,1.74-4.99,3.52-7.54,5.21l-7.76,4.94c-10.5,6.38-21.53,12-32.95,16.72-11.46,4.66-23.17,8.25-34.85,11.17-11.69,2.92-23.37,5.16-34.93,7.15-11.57,1.99-23.03,3.72-34.34,5.56-11.29,1.86-22.49,3.8-33.34,6.27-10.88,2.47-21.58,5.47-31.91,9.21-10.33,3.73-20.29,8.23-29.56,13.69-9.26,5.45-17.83,11.87-25.21,19.38-7.4,7.48-13.47,16.11-18.33,25.57-2.49,4.69-4.49,9.69-6.4,14.73-.45,1.28-.86,2.57-1.29,3.86l-.64,1.93-.32.97-.28.99-1.12,3.95c-.18.66-.38,1.31-.55,1.98l-.48,2.01c-2.64,10.69-4.41,21.77-5.76,33.01-2.66,22.53-3.69,45.72-6.75,69.12-1.56,11.7-3.66,23.46-6.87,35.06l-.59,2.18-.68,2.16-1.36,4.32c-.45,1.44-1.02,2.85-1.53,4.28-.54,1.42-1.01,2.85-1.6,4.26l-1.79,4.2-.9,2.1c-.32.69-.67,1.37-1,2.06l-2.03,4.1c-.32.69-.7,1.36-1.08,2.02l-1.13,1.99c-.77,1.32-1.49,2.67-2.3,3.97l-2.52,3.84-1.26,1.92c-.41.65-.9,1.24-1.34,1.86-.92,1.22-1.81,2.48-2.75,3.67-3.78,4.81-7.92,9.27-12.24,13.49-4.32,4.24-8.92,8.09-13.61,11.79-4.69,3.7-9.54,7.12-14.45,10.39-4.91,3.28-9.9,6.39-14.92,9.38-5.02,3-10.08,5.91-15.11,8.76-10.08,5.71-20.09,11.34-29.77,17.37-4.83,3.03-9.57,6.16-14.18,9.44-4.6,3.3-9.04,6.78-13.3,10.44-4.29,3.64-8.26,7.62-12.05,11.71-3.73,4.12-7.13,8.56-10.18,13.22-6.08,9.33-10.7,19.66-13.05,30.48-2.36,10.8-2.33,22.14.84,32.71l-5.63,1.77c-.93-2.88-1.68-5.82-2.23-8.8-.56-2.98-.87-6-1.03-9.02-.16-3.02-.11-6.05.12-9.06.22-3.01.6-6.01,1.17-8.97,2.23-11.86,6.9-23.12,13.13-33.33,3.13-5.11,6.65-9.98,10.55-14.54,3.94-4.51,8.03-8.83,12.44-12.81,4.39-4,8.95-7.79,13.65-11.36,4.71-3.56,9.52-6.94,14.4-10.2,19.53-12.99,39.98-23.88,58.44-36.99,4.62-3.27,9.12-6.65,13.41-10.24,4.29-3.59,8.46-7.29,12.28-11.27,3.83-3.97,7.45-8.11,10.69-12.49.81-1.09,1.56-2.23,2.35-3.33.38-.56.8-1.1,1.14-1.69l1.07-1.74,2.14-3.47c.68-1.18,1.29-2.4,1.94-3.59l.96-1.8c.33-.6.64-1.2.91-1.83l1.7-3.72c.28-.62.58-1.24.85-1.86l.75-1.91,1.5-3.82c.49-1.28.89-2.6,1.33-3.9.42-1.31.9-2.59,1.28-3.92l1.13-3.99.56-1.99.48-2.02c2.65-10.77,4.32-21.87,5.49-33.13,2.3-22.54,2.66-45.64,4.74-69.11,1.07-11.74,2.59-23.6,5.15-35.44l.47-2.22c.16-.74.36-1.48.55-2.22l1.12-4.43.28-1.11.33-1.1.66-2.2c.45-1.47.86-2.94,1.34-4.4,2-5.83,4.16-11.65,6.91-17.26.68-1.41,1.35-2.82,2.05-4.22l2.29-4.11c1.46-2.78,3.27-5.37,4.96-8.03,3.49-5.26,7.47-10.21,11.75-14.83,8.58-9.25,18.47-17.07,28.94-23.65,10.48-6.58,21.55-11.94,32.83-16.4,11.29-4.46,22.81-8.03,34.39-11.02,23.21-5.92,46.25-9.54,68.58-14.07,22.3-4.49,43.96-9.86,63.66-18.56,9.82-4.41,19.3-9.58,28.4-15.47l6.74-4.57c2.22-1.57,4.39-3.24,6.59-4.85,2.22-1.58,4.31-3.36,6.46-5.06l3.2-2.57c1.05-.88,2.09-1.8,3.13-2.69l3.12-2.7,1.56-1.35,1.53-1.4,6.1-5.62,5.97-5.83,1.49-1.46,1.46-1.5,2.93-3c7.78-8.04,15.36-16.36,22.79-24.97,7.44-8.59,14.78-17.36,22.13-26.23,7.36-8.88,14.75-17.83,22.3-26.77,7.54-8.94,15.3-17.84,23.34-26.61,2.03-2.18,4.02-4.38,6.09-6.54l6.23-6.47c4.26-4.25,8.49-8.52,12.96-12.63,8.87-8.26,18.12-16.28,28.1-23.61,9.94-7.36,20.44-14.15,31.48-20.16l17.49,33.61Z"/>
      <path class="cls-6" d="M536.55-91.39c-6.95,2.94-14,6.55-21.17,10.87-7.17,4.27-14.42,9.5-21.76,15.25-1.83,1.46-3.68,2.85-5.52,4.45-1.84,1.56-3.7,3.07-5.55,4.67l-5.58,4.92c-1.86,1.65-3.74,3.43-5.61,5.14-7.51,6.99-15.08,14.41-22.8,22.3-7.73,7.88-15.6,16.1-23.68,24.55-8.12,8.49-16.49,17.18-25.22,25.96l-6.62,6.6-6.82,6.62c-2.24,2.2-4.66,4.42-6.99,6.62l-3.53,3.3-3.65,3.29-3.66,3.29-1.83,1.64-1.89,1.63-7.6,6.5-7.9,6.4-1.98,1.59-2.06,1.57-4.12,3.13c-1.38,1.04-2.73,2.08-4.13,3.11l-4.29,3.03c-2.88,2.01-5.66,4.05-8.69,5.97-2.99,1.93-5.92,3.89-8.96,5.76l-9.28,5.49c-12.59,7.11-25.95,13.4-39.77,18.6-13.89,5.14-27.62,8.83-40.83,11.63-13.22,2.8-25.95,4.74-38.12,6.34-12.18,1.59-23.81,2.84-34.91,4.14l-8.21.99-8.01,1.04-3.92.55c-1.3.18-2.63.36-3.86.55-1.25.19-2.5.37-3.74.58-1.24.2-2.48.4-3.7.62-9.83,1.7-19.29,3.83-28.19,6.49-8.9,2.65-17.19,5.86-24.64,9.62-7.45,3.77-14.04,8.07-19.62,12.96-2.79,2.47-5.35,5.02-7.67,7.86-1.12,1.47-2.39,2.83-3.41,4.45l-1.65,2.33-1.52,2.51c-8.27,13.31-13.38,32-16.9,52.99-1.76,10.54-3.17,21.68-4.65,33.23-1.48,11.56-3,23.55-5.13,35.91-2.14,12.36-4.89,25.11-8.95,37.97l-.75,2.41-.85,2.42-1.71,4.82c-.57,1.6-1.27,3.21-1.91,4.82-.67,1.6-1.27,3.2-2,4.8l-2.22,4.77-1.12,2.37c-.4.79-.83,1.57-1.24,2.35l-2.51,4.68c-.4.78-.87,1.55-1.34,2.31l-1.4,2.28c-.94,1.52-1.85,3.04-2.83,4.53l-3.09,4.4-1.55,2.19c-.51.73-1.1,1.42-1.64,2.13-1.12,1.4-2.21,2.83-3.36,4.18-4.58,5.45-9.5,10.41-14.56,15-5.05,4.62-10.31,8.71-15.6,12.56-5.29,3.86-10.65,7.34-16.01,10.61-5.36,3.28-10.72,6.33-16.05,9.21-5.31,2.89-10.64,5.66-15.82,8.31-10.39,5.32-20.44,10.39-30,15.75-4.76,2.68-9.38,5.44-13.86,8.31-4.45,2.88-8.71,5.89-12.79,9.06l-3.02,2.41-2.9,2.49c-.99.82-1.88,1.71-2.82,2.56l-1.4,1.29c-.46.43-.88.86-1.32,1.29-3.48,3.46-6.71,7.24-9.63,11.23-5.83,7.99-10.38,16.93-12.93,26.21-2.55,9.27-3.04,18.88-.87,28.01l-5.63,1.77c-2.84-10.09-2.7-20.85-.27-31.14,2.42-10.31,7.02-20.18,13.01-29.06,3.01-4.44,6.35-8.65,10-12.56,3.72-3.88,7.63-7.68,11.85-11.15,4.2-3.5,8.58-6.83,13.13-9.98,4.57-3.14,9.27-6.15,14.07-9.06,9.64-5.81,19.67-11.25,29.85-16.83,5.08-2.78,10.23-5.64,15.35-8.61,5.12-2.95,10.24-6.04,15.3-9.32,5.06-3.27,10.08-6.72,14.97-10.46,4.89-3.75,9.71-7.68,14.27-12.04,4.57-4.35,8.96-8.97,13.01-14,1.02-1.25,1.97-2.56,2.96-3.84.48-.65,1-1.28,1.44-1.95l1.36-2.01,2.71-4.03c.87-1.36,1.65-2.77,2.48-4.16l1.22-2.09c.41-.7.82-1.39,1.17-2.11l2.19-4.29c.36-.72.73-1.43,1.08-2.15l.97-2.19,1.93-4.39c.63-1.47,1.15-2.96,1.73-4.44.55-1.48,1.16-2.96,1.65-4.46l1.48-4.49.73-2.25.64-2.25c3.49-12.02,5.81-24.11,7.57-36.03,3.44-23.83,4.8-47.08,7.76-69.13,1.49-11,3.38-21.68,6.06-31.8l.49-1.9c.17-.63.37-1.24.55-1.86l1.12-3.71.28-.93.32-.9.63-1.8c.43-1.19.83-2.41,1.27-3.59,1.86-4.66,3.79-9.24,6.15-13.47l1.73-3.19,1.91-3.04c1.2-2.08,2.68-3.93,4.03-5.88,2.79-3.81,5.92-7.32,9.3-10.65,6.78-6.63,14.69-12.35,23.35-17.24,8.66-4.89,18.07-8.96,27.92-12.33,9.85-3.38,20.14-6.09,30.67-8.3,2.63-.56,5.28-1.08,7.95-1.57,2.66-.5,5.43-.95,8.13-1.43l8.26-1.34,8.37-1.27c11.24-1.66,22.76-3.23,34.53-5.09,11.77-1.86,23.79-4,36-6.88,12.19-2.88,24.57-6.5,36.84-11.32,12.22-4.88,24.03-10.73,35.22-17.35l8.27-5.12c2.72-1.75,5.34-3.59,8.01-5.39,2.7-1.78,5.21-3.72,7.79-5.6l3.85-2.85c1.26-.97,2.49-1.96,3.73-2.94l3.72-2.96,1.86-1.48,1.8-1.52,7.18-6.09,6.95-6.23,1.73-1.56,1.68-1.59,3.37-3.17c8.92-8.48,17.5-17.14,25.68-25.85,8.21-8.7,16.17-17.43,23.98-26.07,7.79-8.62,15.47-17.13,23.13-25.44,7.65-8.31,15.3-16.32,23.02-24.02,1.94-1.9,3.86-3.85,5.8-5.7l5.84-5.54c3.93-3.57,7.84-7.19,11.83-10.52,7.96-6.76,16.01-13.11,24.3-18.6,8.27-5.54,16.71-10.42,25.29-14.59l17.49,33.61Z"/>
      <path class="cls-1" d="M562.78-40.97c-4.49,1.1-9.48,2.79-14.98,5.3-5.48,2.43-11.53,5.99-17.96,10.24-1.61,1.08-3.22,2.09-4.9,3.35l-2.51,1.81-1.26.9c-.42.3-.84.6-1.27.94l-5.19,3.99c-.86.64-1.76,1.41-2.65,2.12l-2.67,2.18c-.9.74-1.78,1.42-2.7,2.21l-2.75,2.35c-1.84,1.57-3.66,3.09-5.56,4.81l-5.67,5.04-5.81,5.31c-7.84,7.25-16,15.03-24.51,23.22-8.58,8.26-17.57,16.91-27.07,25.8l-7.23,6.72-7.52,6.82-1.88,1.7-1.95,1.72-3.92,3.45-3.92,3.44-4.09,3.47-4.1,3.46-2.05,1.72-2.14,1.74-8.58,6.91-8.98,6.87-2.25,1.71-2.35,1.7-4.71,3.38c-1.58,1.12-3.12,2.24-4.73,3.36l-4.93,3.31c-3.31,2.19-6.51,4.39-10.02,6.51l-5.17,3.18-2.59,1.58c-.86.52-1.72,1.05-2.63,1.55-3.6,2.04-7.2,4.05-10.8,6.04-14.68,7.84-30.37,14.81-46.59,20.47-16.31,5.62-32.07,9.4-46.82,12.1-14.76,2.69-28.53,4.32-41.32,5.52-12.78,1.2-24.59,1.97-35.48,2.72l-7.97.57-7.62.58-7.24.61-3.37.31c-1.12.1-2.23.21-3.32.34-8.78.93-17.01,2.19-24.47,3.77-7.46,1.57-14.1,3.48-19.73,5.55-5.64,2.08-10.25,4.27-14.03,6.55-.44.3-.94.57-1.39.87-.42.31-.92.58-1.33.89-.41.31-.89.59-1.27.92-.4.32-.85.6-1.23,1-.78.76-1.73,1.38-2.49,2.3-.41.43-.83.85-1.27,1.27l-1.2,1.48c-1.69,1.93-3.23,4.44-4.87,7.15-.39.71-.76,1.48-1.15,2.22l-.59,1.12-.3.56-.27.62-1.11,2.5c-.19.42-.39.82-.57,1.27l-.52,1.37c-2.87,7.23-5.38,15.96-7.57,25.73-2.19,9.81-4.09,20.65-6.06,32.23-1.99,11.59-4.02,23.91-6.73,36.93-2.73,13.03-6.12,26.76-11.02,40.88l-.91,2.63-1.02,2.67-2.06,5.32c-.33.88-.73,1.78-1.12,2.67l-1.17,2.68c-.8,1.79-1.53,3.55-2.39,5.33l-2.65,5.33-1.34,2.65c-.48.88-.98,1.76-1.47,2.64l-2.99,5.25c-.48.87-1.03,1.73-1.59,2.59l-1.66,2.57c-1.12,1.71-2.2,3.42-3.37,5.1l-3.66,4.96-1.84,2.46c-.6.82-1.29,1.6-1.94,2.4-1.32,1.57-2.62,3.18-3.97,4.69-5.39,6.09-11.09,11.54-16.88,16.52-5.79,5-11.71,9.32-17.59,13.34-1.47.98-2.95,2.01-4.41,2.93l-4.4,2.78c-2.92,1.76-5.85,3.53-8.75,5.14-2.91,1.67-5.78,3.18-8.65,4.72-2.85,1.47-5.71,2.95-8.51,4.33l-2.11,1.05-2.09,1.01-4.17,2-4.12,1.94-4.03,1.86c-10.7,4.92-20.8,9.44-30.22,14.12-4.68,2.34-9.2,4.72-13.53,7.17-4.31,2.46-8.39,5.01-12.28,7.68l-2.88,2.02-2.76,2.09c-.95.68-1.78,1.43-2.68,2.14l-1.33,1.08-1.23,1.05c-3.24,2.8-6.29,5.92-9.08,9.25-5.58,6.66-10.07,14.2-12.81,21.93-2.74,7.75-3.76,15.61-2.57,23.3l-5.63,1.77c-1.85-8.65-1.18-17.67,1.43-26.44,2.61-8.76,7.14-17.24,12.89-24.78,2.88-3.77,6.05-7.33,9.45-10.57.43-.4.84-.81,1.29-1.21l1.38-1.22c.93-.81,1.79-1.65,2.77-2.42l2.85-2.36,2.97-2.28c4.02-3,8.21-5.86,12.62-8.6,4.43-2.73,9.02-5.36,13.75-7.93,9.51-5.13,19.58-10.02,30.07-15.21,5.22-2.57,10.64-5.3,16.05-8.16,5.42-2.85,10.91-5.87,16.42-9.16,5.51-3.27,11.04-6.78,16.53-10.69,5.48-3.91,10.96-8.08,16.26-12.82,5.3-4.72,10.48-9.84,15.33-15.51,1.22-1.41,2.38-2.9,3.56-4.35.58-.74,1.2-1.45,1.74-2.22l1.65-2.28,3.28-4.59c1.05-1.55,2.01-3.14,3.01-4.72l1.48-2.38c.5-.79.99-1.59,1.42-2.4l2.67-4.87c.44-.81.89-1.63,1.32-2.45l1.19-2.46,2.36-4.95c.77-1.66,1.42-3.31,2.13-4.97.68-1.66,1.42-3.34,2.03-4.99l1.82-4.99.9-2.5.8-2.48c4.34-13.28,7.3-26.35,9.64-38.94,2.32-12.58,4.01-24.68,5.66-36.25,1.64-11.56,3.22-22.6,5.12-32.9,3.78-20.51,9.17-38.07,16.92-49.51l1.41-2.17c.52-.66,1.03-1.32,1.53-1.98.93-1.38,2.1-2.5,3.1-3.73,2.08-2.35,4.36-4.43,6.85-6.46,4.98-4.02,10.91-7.62,17.76-10.82,6.84-3.2,14.59-5.97,23.01-8.26,8.42-2.3,17.47-4.14,26.95-5.58,1.18-.19,2.37-.36,3.57-.52,1.19-.17,2.4-.33,3.61-.49l7.6-.94,7.88-.89,8.13-.85c11.03-1.12,22.72-2.21,35.1-3.67,12.38-1.47,25.45-3.3,39.19-6.06,13.72-2.77,28.13-6.49,42.83-11.79,14.62-5.35,28.76-11.87,42.04-19.22l9.79-5.67c3.21-1.94,6.29-3.95,9.44-5.94,3.19-1.98,6.11-4.08,9.13-6.15l4.5-3.13c1.47-1.05,2.89-2.12,4.33-3.19l4.31-3.21,2.16-1.61,2.07-1.63,8.26-6.56,7.93-6.64,1.98-1.67,1.9-1.67,3.81-3.34,3.8-3.35,3.66-3.35,3.66-3.36,1.82-1.68,1.76-1.67,7.05-6.69,6.82-6.64c8.98-8.82,17.56-17.5,25.84-25.91,8.23-8.36,16.19-16.44,23.96-24.11l5.78-5.66,5.7-5.45c1.91-1.85,3.77-3.53,5.64-5.26l2.8-2.59c.93-.87,1.85-1.65,2.78-2.48l2.76-2.45c.92-.81,1.84-1.66,2.75-2.41l5.45-4.61c1.81-1.5,3.59-2.88,5.38-4.33,1.79-1.48,3.55-2.75,5.32-4.08,7.04-5.25,13.89-9.93,20.5-13.58,6.61-3.72,12.97-6.68,19.11-9.01l17.49,33.61Z"/>
    </g>
  </g>
</svg>