<?xml version="1.0" encoding="UTF-8"?>
<svg id="Layer_3" data-name="Layer 3" xmlns="http://www.w3.org/2000/svg" viewBox="0 0 100 100">
  <defs>
    <style>
      .cls-1 {
        fill: #462b7e;
        stroke-width: 0px;
      }
    </style>
  </defs>
  <path class="cls-1" d="M84.21,61.13c0,1.01.09,2.03-.02,3.03-.23,2.01.35,3.72,1.49,5.36,1.56,2.23,2.64,4.73,2.9,7.45.22,2.29.31,4.61.21,6.9-.1,2.34-2.25,4.09-4.51,3.99-2.42-.11-4.22-1.95-4.3-4.44-.04-1.29-.06-2.57-.04-3.86.03-2.1-.78-3.9-1.89-5.61-.24-.37-.53-.28-.86-.28-.38,0-.51.21-.61.52-.62,1.93-1.26,3.87-1.89,5.8-.54,1.65-1.04,3.31-1.63,4.94-1.03,2.85-4.5,3.83-6.88,1.97-1.47-1.15-2.06-3.03-1.46-4.92.76-2.42,1.57-4.83,2.36-7.25.67-2.05,1.35-4.09,1.99-6.14.13-.41.11-.87.11-1.3,0-.6-.05-1.2-.05-1.79,0-2.01,0-4.01,0-6.02,0-.7-.02-.7-.72-.54-.67.16-1.33.34-2.01.48-2.07.43-3.93.02-5.48-1.47-1.51-1.45-3.02-2.91-4.48-4.41-1.28-1.32-1.56-3.28-.79-4.92.77-1.64,2.47-2.64,4.3-2.52,1.12.07,2.07.53,2.87,1.31.87.86,1.76,1.71,2.62,2.58.3.3.58.41,1.03.29,1.56-.42,3.13-.77,4.69-1.19.33-.09.66-.29.94-.49,3.37-2.45,7.83-1.87,10.47,1.34.27.33.65.62,1.03.81,1.89.96,3.8,1.9,5.71,2.83,1.8.88,2.96,2.28,3.5,4.2.61,2.16,1.28,4.3,1.85,6.47.56,2.15-.66,4.36-2.74,5.14-2.36.88-4.94-.33-5.73-2.72-.52-1.59-.95-3.21-1.43-4.81-.08-.27-.19-.53-.28-.79-.1.02-.2.03-.3.05ZM81.67,63.14s.04,0,.06,0c0-1.32-.02-2.63,0-3.95.02-1.25.85-1.76,2-1.24.6.27,1.16.63,1.78.86.87.33,1.31.93,1.54,1.81.45,1.71.97,3.39,1.46,5.09.22.75.68,1.26,1.45,1.44,1.46.33,2.68-.94,2.28-2.43-.55-2.05-1.18-4.08-1.75-6.12-.37-1.33-1.17-2.25-2.41-2.84-2.05-.98-4.09-1.99-6.11-3.02-.41-.21-.81-.52-1.08-.89-1.89-2.57-5.05-2.98-7.56-.98-.27.22-.59.42-.93.51-2.14.56-4.29,1.08-6.43,1.62-.55.14-1,0-1.39-.38-.23-.23-.47-.46-.71-.69-.92-.9-1.83-1.82-2.76-2.7-.87-.82-1.94-.85-2.74-.11-.83.77-.83,1.99.04,2.86,1.37,1.38,2.77,2.73,4.16,4.09.98.97,2.14,1.23,3.47.89,1.21-.32,2.43-.62,3.65-.91,1.32-.32,1.93.17,1.93,1.54,0,2.51-.01,5.03.01,7.54,0,.8.14,1.6.17,2.41.01.41-.03.84-.15,1.23-.74,2.34-1.51,4.67-2.26,7-.77,2.36-1.55,4.71-2.29,7.08-.33,1.04.2,2.05,1.17,2.4.97.35,2.01-.1,2.45-1.09.1-.22.16-.45.24-.68.67-2.05,1.33-4.09,2-6.14.55-1.68,1.09-3.36,1.64-5.03.28-.86.63-1.1,1.4-1.13.71-.03,1.43-.07,2.13-.18.61-.09,1.06.09,1.39.58,1.79,2.65,3.15,5.43,2.93,8.76-.07,1.01-.02,2.04.04,3.05.07,1.13.75,1.85,1.74,1.96,1.18.13,2.14-.78,2.15-2.1,0-1.32-.04-2.63-.07-3.95-.05-2.88-.87-5.53-2.41-7.97-.65-1.04-1.29-2.09-1.89-3.15-.18-.32-.31-.72-.32-1.09-.04-1.31-.01-2.63-.01-3.95Z"/>
  <path class="cls-1" d="M28.01,70.11c-.26.65-.42,1.06-.58,1.47-1.42,3.69-2.46,7.49-3.49,11.3-.13.48-.26.95-.44,1.41-1.12,2.74-4.14,4.17-6.92,3.28-2.77-.88-4.43-3.69-3.73-6.56,1.18-4.87,2.58-9.68,4.43-14.34.96-2.42,1.62-4.82,1.33-7.48-.2-1.8-.04-3.63-.04-5.68-1.16.55-2.2.98-3.17,1.52-.26.15-.4.62-.49.97-.41,1.62-.72,3.26-1.18,4.86-.71,2.44-3.34,3.73-5.72,2.89-1.94-.68-3.08-2.64-2.78-4.68.48-3.27.95-6.53,1.4-9.8.31-2.23,1.49-3.75,3.55-4.64,3.06-1.32,6.13-2.65,9.17-4.02.53-.24,1.06-.6,1.43-1.04,3.25-3.74,8.5-4.5,12.68-1.81.47.3,1,.54,1.54.67,1.33.32,2.68.51,4.01.85.65.17.95-.04,1.27-.56,1.35-2.2,2.73-4.38,4.11-6.56,1.09-1.72,2.63-2.71,4.68-2.79,2.16-.09,3.86.78,4.98,2.61,1.12,1.82,1.15,3.74.16,5.64-.42.8-.95,1.55-1.43,2.33-1.55,2.48-3.11,4.95-4.66,7.43-1.94,3.1-4.78,4.29-8.38,3.52-.45-.09-.89-.18-1.34-.28-.49-.12-.71.06-.71.57,0,1.03,0,2.05,0,3.08,0,.34.01.69-.05,1.02-.13.66-.69,1.14-1.35,1.2-.67.07-1.31-.27-1.56-.9-.13-.34-.18-.74-.19-1.11-.02-1.82-.02-3.65,0-5.47.01-1.66.76-2.24,2.41-1.9,1.15.24,2.3.49,3.45.72,2.28.47,3.8-.17,5.04-2.14,1.92-3.05,3.83-6.11,5.75-9.16.37-.59.66-1.2.53-1.92-.17-.98-.71-1.7-1.67-1.98-.94-.28-1.82-.08-2.51.65-.28.3-.51.66-.73,1.01-1.54,2.44-3.06,4.89-4.6,7.33-.74,1.18-1.08,1.31-2.45,1.04-2.01-.41-4.02-.78-6.02-1.24-.61-.14-1.22-.42-1.73-.79-3-2.12-6.79-1.61-9.01,1.32-.49.64-1.06,1.04-1.77,1.35-3.17,1.36-6.32,2.77-9.5,4.11-1.2.51-1.87,1.29-2.03,2.61-.38,3.09-.85,6.16-1.28,9.24-.13.92.17,1.45.86,1.58.64.12,1.31-.31,1.51-1.09.46-1.84.92-3.68,1.3-5.54.19-.96.7-1.52,1.57-1.91,1.84-.82,3.63-1.72,5.46-2.56,1.53-.71,2.56-.07,2.6,1.59,0,.27,0,.53,0,.8,0,2.58,0,5.16,0,7.75,0,.34-.07.71.03,1.02.46,1.41,0,2.67-.47,3.97-1.95,5.26-3.8,10.56-5.14,16.02-.13.55-.29,1.12-.25,1.67.1,1.09.92,1.88,1.97,2.08,1.01.19,2.06-.31,2.57-1.27.19-.36.32-.77.42-1.17,1.23-4.74,2.71-9.4,4.44-13.98.53-1.4.85-1.6,2.38-1.49.45.03.91-.03,1.36-.03.76,0,1.31.33,1.57,1.07.22.64.43,1.29.65,1.94,1.4,4.25,2.8,8.5,4.2,12.75.08.25.16.51.28.75.56,1.2,1.83,1.75,3.03,1.34,1.16-.4,1.92-1.71,1.56-2.93-.56-1.89-1.23-3.75-1.84-5.62-.76-2.31-1.52-4.61-2.27-6.92-.06-.18-.11-.36-.16-.55-.3-1.04.04-1.88.86-2.17.94-.32,1.76.1,2.12,1.17,1.44,4.32,2.92,8.62,4.27,12.97,1.09,3.51-1.15,6.84-4.78,7.32-2.48.33-4.97-1.25-5.84-3.78-1.32-3.84-2.57-7.7-3.85-11.55-.24-.71-.48-1.42-.8-2.38Z"/>
  <path class="cls-1" d="M45.63,14.83c-.05,1.57-.28,3.1-.9,4.55-.88,2.07-2.35,3.41-4.65,3.72-.45.06-.9.12-1.36.15-.47.04-.61.26-.65.73-.08,1.05-.11,2.13-.39,3.14-1.26,4.63-5.57,7.6-10.41,7.24-4.58-.34-8.36-3.93-9-8.56-.07-.52-.11-1.06-.13-1.59-.03-.9-.02-.9-.96-1-.45-.05-.9-.13-1.35-.2-1.74-.27-3-1.24-3.85-2.73-1.17-2.04-1.48-4.3-1.35-6.6.08-1.41,1.43-2.03,2.54-1.17.58.45,1.16.54,1.8.42.82-.15,1.62-.37,2.43-.58,2.43-.64,4.41.1,5.98,2,.71.85.69.85,1.82.53,2.06-.59,4.12-.61,6.15.13.59.22.91.16,1.32-.37,1.81-2.38,3.72-2.96,6.6-2.15.66.18,1.32.34,2,.45.64.1,1.22.03,1.8-.43,1.1-.86,2.42-.22,2.54,1.17.03.38,0,.76,0,1.14ZM28.12,31.24c3.19,0,5.95-2.23,6.65-5.34.27-1.18.16-2.33-.13-3.48-.34-1.34.27-2.09,1.67-2.16.83-.04,1.67-.11,2.5-.18,2.08-.18,3.15-1.21,3.43-3.26.05-.39.02-.61-.47-.68-1.31-.2-2.61-.44-3.9-.75-.87-.21-1.62-.03-2.17.61-.51.6-.91,1.3-1.28,1.99-.61,1.13-1.42,1.43-2.52.76-2.52-1.51-5.01-1.51-7.52,0-1.11.67-1.91.39-2.51-.77-.3-.57-.59-1.15-.98-1.66-.68-.9-1.56-1.2-2.71-.9-1.2.32-2.44.5-3.67.71-.36.06-.54.14-.51.55.18,1.99,1.35,3.2,3.33,3.38.91.08,1.82.14,2.72.19,1.27.07,1.85.8,1.62,2.04-.06.33-.17.66-.23,1-.71,4.16,2.48,7.94,6.69,7.94Z"/>
  <path class="cls-1" d="M76.68,29.36c4.36,0,7.88,3.53,7.85,7.87-.02,4.36-3.54,7.82-7.92,7.8-4.32-.02-7.8-3.51-7.8-7.83,0-4.37,3.49-7.85,7.87-7.85ZM76.69,42.54c2.96-.01,5.38-2.43,5.36-5.37-.02-2.94-2.44-5.33-5.41-5.33-2.96,0-5.37,2.43-5.36,5.37.01,2.95,2.44,5.34,5.4,5.33Z"/>
</svg>