<?xml version="1.0" encoding="UTF-8"?>
<svg id="Layer_1" data-name="Layer 1" xmlns="http://www.w3.org/2000/svg" viewBox="0 0 100 100">
  <defs>
    <style>
      .cls-1 {
        fill: #462b7e;
        stroke-width: 0px;
      }
    </style>
  </defs>
  <g id="ZFVhoG">
    <g>
      <path class="cls-1" d="M49.63,10.54c-9.91.24-17.99,4.17-24.1,12.01-3.24,4.15-5.19,8.86-5.89,14.08-.16,1.22-.2,2.46-.3,3.7-.02.29-.03.59-.1.86-.14.56-.63.94-1.15.95-.51,0-1.04-.38-1.19-.92-.07-.25-.08-.53-.07-.79.11-5.41,1.41-10.52,4.03-15.27,3.09-5.62,7.46-9.96,13.07-13.06,3.42-1.89,7.06-3.14,10.92-3.66,9.46-1.27,18.01,1.01,25.45,7,6.02,4.85,9.81,11.15,11.45,18.71.47,2.19.71,4.41.65,6.65-.02.73-.37,1.19-1.01,1.32-.72.14-1.37-.41-1.42-1.2-.05-.78-.08-1.55-.13-2.33-.27-4.03-1.33-7.84-3.18-11.42-3.1-6-7.68-10.52-13.73-13.52-3.12-1.55-6.41-2.51-9.88-2.86-1.13-.11-2.28-.16-3.43-.24Z"/>
      <path class="cls-1" d="M49.72,16.05c-9.43.43-16.78,4.69-21.57,13.16-1.52,2.69-2.36,5.61-2.78,8.66-.12.92-.12,1.86-.18,2.8-.02.27-.04.55-.15.79-.2.48-.69.75-1.19.69-.53-.06-.92-.35-1.09-.87-.08-.25-.1-.53-.1-.8.12-4.56,1.22-8.86,3.45-12.84,2.46-4.4,5.87-7.87,10.24-10.39,3.1-1.79,6.43-2.92,9.99-3.41,5.69-.77,11.1.15,16.17,2.79,6.31,3.29,10.71,8.32,13.19,15.01,1.05,2.84,1.55,5.79,1.63,8.81,0,.24,0,.5-.06.73-.14.6-.64.98-1.22.98-.55,0-1.03-.37-1.18-.93-.06-.23-.08-.48-.08-.73-.04-3.99-.98-7.76-2.91-11.24-3.77-6.81-9.46-11.06-17.09-12.68-.5-.11-1.01-.22-1.52-.26-1.1-.1-2.21-.16-3.55-.26Z"/>
      <path class="cls-1" d="M49.8,19.23c8.81,0,17.12,5.57,20.31,14.27.84,2.3,1.27,4.68,1.31,7.13,0,.54-.12,1.02-.62,1.31-.83.49-1.8-.05-1.88-1.07-.07-.77-.07-1.55-.16-2.32-.47-4.06-2.14-7.59-4.9-10.6-2.62-2.85-5.81-4.8-9.59-5.64-6.6-1.48-12.47.06-17.49,4.62-2.97,2.69-4.84,6.06-5.67,9.97-.23,1.09-.27,2.21-.39,3.32-.03.29-.01.59-.07.87-.14.66-.7,1.1-1.3,1.04-.62-.06-1.14-.56-1.13-1.22.01-.97.04-1.95.18-2.91.58-4.14,2.19-7.85,4.91-11.03,3.42-4.01,7.74-6.5,12.96-7.36,1.17-.19,2.36-.25,3.54-.38Z"/>
      <path class="cls-1" d="M75.31,45c4.53,0,8.24,3.73,8.21,8.29-.02,4.09-3.2,8.13-8.18,8.18-4.71.05-8.32-3.68-8.32-8.25,0-4.9,4.11-8.29,8.28-8.21ZM75.39,47.51c-3.26-.15-5.76,2.56-5.86,5.52-.11,3.12,2.33,5.87,5.61,5.96,3.21.09,5.8-2.46,5.9-5.59.11-3.38-2.79-6-5.64-5.89Z"/>
      <path class="cls-1" d="M50.93,58.13c4.12-.05,8.19,3.29,8.2,8.22.01,4.57-3.59,8.29-8.32,8.25-4.76-.04-8.18-3.9-8.16-8.26.02-4.75,3.93-8.27,8.28-8.21ZM50.92,60.63c-3.31-.1-5.79,2.75-5.79,5.76,0,2.73,2.24,5.72,5.77,5.74,3.15.02,5.71-2.59,5.75-5.76.04-3.04-2.54-5.83-5.73-5.74Z"/>
      <path class="cls-1" d="M26.34,61.43c-4.37.16-8.23-3.68-8.25-8.14-.02-4.43,3.63-8.27,8.19-8.31,4.55-.03,8.27,3.82,8.29,8.21.02,4.41-3.75,8.38-8.23,8.24ZM26.34,47.5c-2.94-.11-5.78,2.3-5.78,5.69,0,3.41,2.64,5.83,5.85,5.79,3.03-.04,5.65-2.32,5.67-5.75.02-3.59-3.04-5.85-5.74-5.73Z"/>
      <path class="cls-1" d="M61.88,75.28c-.13-1.59.14-3.36.92-5.02,1.83-3.89,4.97-6.16,9.12-6.99,3.42-.68,6.68-.1,9.65,1.77,2.95,1.85,4.84,4.49,5.4,7.94.23,1.43.17,2.91.15,4.36-.01.88-.56,1.32-1.35,1.29-.72-.03-1.2-.53-1.24-1.35-.03-.73-.03-1.46,0-2.19.09-3.46-1.49-6.02-4.31-7.85-4.17-2.71-9.94-2.02-13.38,1.58-1.58,1.65-2.38,3.63-2.4,5.93,0,.9,0,1.8,0,2.7,0,.56-.26.98-.77,1.22-.82.38-1.73-.18-1.77-1.1-.03-.68,0-1.36,0-2.28Z"/>
      <path class="cls-1" d="M38.17,75.65c0,.56.02,1.12,0,1.68-.03.84-.55,1.33-1.33,1.31-.75-.02-1.2-.51-1.22-1.34-.03-1.16.01-2.34-.11-3.49-.29-2.85-1.8-4.99-4.16-6.52-3.85-2.5-9.05-2.21-12.59.72-1.98,1.64-3.16,3.73-3.24,6.35-.03.97-.03,1.94-.08,2.91-.02.33-.08.69-.23.97-.25.45-.84.63-1.34.51-.54-.13-.96-.66-.98-1.3-.03-.85-.05-1.7,0-2.55.07-.96.13-1.95.37-2.88.82-3.27,2.85-5.64,5.73-7.29,1.98-1.14,4.14-1.74,6.41-1.7,5.22.1,9.26,2.3,11.72,7.03.67,1.28.97,2.69,1.04,4.14.02.48,0,.97,0,1.46h0Z"/>
      <path class="cls-1" d="M37.51,88.44c-.11-1.64.14-3.43.94-5.12,1.74-3.64,4.65-5.89,8.53-6.79,4.51-1.04,8.6-.06,12.05,3.06,2.33,2.11,3.63,4.77,3.67,7.97.01.95.02,1.9,0,2.84-.01.87-.49,1.37-1.27,1.36-.77,0-1.27-.51-1.29-1.36-.02-.78-.01-1.56,0-2.33.04-3.24-1.42-5.71-4.02-7.51-3.76-2.6-8.96-2.44-12.54.36-2.29,1.79-3.56,4.13-3.53,7.1,0,.8,0,1.6,0,2.41,0,.43-.12.81-.44,1.12-.37.36-.81.45-1.28.28-.49-.18-.83-.51-.84-1.07-.01-.7,0-1.41,0-2.32Z"/>
    </g>
  </g>
</svg>