<?xml version="1.0" encoding="UTF-8"?>
<svg id="Layer_2" data-name="Layer 2" xmlns="http://www.w3.org/2000/svg" viewBox="0 0 100 100">
  <defs>
    <style>
      .cls-1 {
        fill: #462b7e;
        stroke-width: 0px;
      }
    </style>
  </defs>
  <g id="O04G0Z.tif">
    <g>
      <path class="cls-1" d="M49.94,87.33c-10.76,0-21.52.01-32.29-.02-.97,0-2-.14-2.88-.51-1.95-.82-2.93-2.45-3.14-4.53-.04-.4-.02-.81-.02-1.21,0-17.83,0-35.66,0-53.49,0-.63,0-1.27.12-1.88.5-2.63,2.53-4.33,5.21-4.41.71-.02,1.58.14,2.09-.21.44-.3.46-1.2.68-1.83,1.38-3.93,5.22-6.62,9.33-6.53,4.15.09,7.85,2.89,9.08,6.88.08.26.19.52.21.78.05.65.33.93,1.03.93.74,0,.98-.31,1.15-.99,1.13-4.47,4.71-7.47,9-7.63,4.68-.17,8.77,2.91,9.93,7.53.15.61.21,1.12,1.05,1.09.63-.03.97-.17,1.1-.86.4-2.05,1.43-3.77,2.97-5.18,5.26-4.8,13.79-2.4,15.78,4.44.09.3.18.61.23.92.07.5.36.68.84.67.45-.01.9,0,1.35,0,3.36.04,5.57,2.23,5.6,5.61.04,3.69.03,7.38.03,11.08,0,14.23-.01,28.46-.02,42.68,0,.41,0,.81,0,1.22-.07,3.21-2.27,5.42-5.48,5.46-2.84.03-5.67,0-8.51,0-8.15,0-16.3,0-24.45,0ZM50.01,39.18c-11.48,0-22.97,0-34.45,0-1.5,0-1.5,0-1.51,1.46,0,4.1,0,8.19,0,12.29,0,9.5,0,19,0,28.5,0,2.36,1.03,3.38,3.36,3.41.23,0,.45,0,.68,0,21.25,0,42.51,0,63.76,0,.5,0,.99.02,1.48-.03,1.26-.12,2.07-.85,2.45-2.01.16-.5.13-1.07.13-1.6,0-13.46,0-26.93,0-40.39,0-.32-.01-.63-.01-.95,0-.44-.2-.67-.65-.67-.41,0-.81-.01-1.22-.01-11.35,0-22.7,0-34.04,0ZM49.99,36.7c11.17,0,22.34,0,33.51,0,.5,0,.99-.03,1.49,0,.69.05.96-.22.96-.93-.02-3.11-.01-6.21-.01-9.32,0-.97-.42-1.73-1.2-2.3-.73-.54-1.57-.6-2.44-.59-1.48.02-1.48,0-1.88,1.4-1.15,4.01-4.42,6.72-8.59,7.13-1.12.11-1.79-.26-1.9-1.04-.11-.82.39-1.24,1.55-1.41.8-.12,1.62-.25,2.35-.56,2.16-.89,3.59-2.5,4.25-4.76.14-.48.08-.8-.53-.76-.18.01-.36,0-.54,0-5.36,0-10.72,0-16.08,0-1.19,0-1.19,0-1.49,1.18-1.06,4.09-4.47,6.97-8.71,7.34-.31.03-.64.02-.93-.05-.58-.14-.94-.53-.94-1.15,0-.62.34-1.02.93-1.17.3-.08.63-.05.94-.09,3.06-.38,5.56-2.47,6.29-5.19.18-.67.04-.94-.66-.87-.18.02-.36,0-.54,0-5.31,0-10.63,0-15.94,0-1.29,0-1.29,0-1.65,1.32-1.12,4.07-4.3,6.78-8.5,7.19-.39.04-.89.07-1.17-.14-.35-.25-.69-.75-.7-1.14,0-.32.42-.75.76-.97.27-.18.69-.11,1.05-.15,3.05-.39,5.13-2.03,6.22-4.9.42-1.13.36-1.2-.87-1.2-5.9,0-11.8-.01-17.7,0-2.12,0-3.23,1.14-3.25,3.27-.02,2.75,0,5.49,0,8.24,0,1.8-.03,1.6,1.62,1.6,11.44,0,22.88,0,34.32,0ZM50.04,15.1c-3.18,0-6.13,2.11-6.96,4.98-.27.94-.14,1.17.78,1.18,4.18.02,8.35,0,12.53.01.7,0,.82-.23.65-.89-.78-3.04-3.71-5.28-7-5.29ZM71.05,21.27c2.07,0,4.14,0,6.21,0,1.04,0,1.07-.07.77-1.09-.89-3-3.77-5.06-7.06-5.03-3.17.03-6.03,2.16-6.86,5.12-.26.93-.24.99.75,1,2.07.02,4.14,0,6.21,0ZM28.87,21.27c2.12,0,4.23.01,6.35,0,.95,0,.98-.06.76-.89-.79-3-3.73-5.21-6.94-5.23-3.29-.02-6.3,2.19-7.11,5.2-.23.85-.2.91.72.92,2.07.02,4.14,0,6.21,0Z"/>
      <path class="cls-1" d="M50.05,45.56c4.68,0,9.37.09,14.05-.03,2.89-.08,5.33,1.98,5.31,5.32-.03,7.43,0,14.86-.02,22.29-.01,3.48-1.98,5.43-5.48,5.44-9.23.02-18.46.01-27.69,0-.76,0-1.54-.08-2.26-.3-2-.61-3.24-2.39-3.24-4.64-.02-7.74-.02-15.49,0-23.23,0-2.87,1.98-4.81,4.87-4.83,4.82-.03,9.64,0,14.46,0ZM49.9,47.9c-4.64,0-9.27.08-13.91-.04-1.71-.04-2.98,1.01-2.97,2.98.05,7.43.02,14.85.02,22.28,0,.18,0,.36,0,.54.11,1.44.96,2.3,2.4,2.44.4.04.81.02,1.21.02,7.11,0,14.22,0,21.34,0,2.12,0,4.23.03,6.35-.01,1.67-.03,2.6-.96,2.6-2.63.02-7.65.02-15.3,0-22.95,0-1.67-.93-2.54-2.61-2.61-.36-.02-.72,0-1.08,0-4.46,0-8.91,0-13.37,0Z"/>
      <path class="cls-1" d="M64.01,53.47c-.34.47-.57.9-.91,1.23-1.54,1.57-3.11,3.12-4.67,4.68-3.73,3.71-7.45,7.43-11.18,11.14-.25.25-.5.53-.77.75-.7.58-1.22.59-1.91-.04-.7-.64-1.34-1.33-2.01-1.99-1.81-1.81-3.63-3.62-5.44-5.44-.25-.25-.52-.51-.72-.8-.36-.51-.28-1.03.14-1.47.43-.45.96-.48,1.47-.15.3.2.55.47.8.72,1.9,1.91,3.8,3.83,5.71,5.74,1.18,1.17.88,1.18,2.02.04,4.84-4.83,9.67-9.66,14.51-14.5.32-.32.61-.72,1-.89.36-.16.89-.17,1.25-.02.3.13.45.59.72.98Z"/>
    </g>
  </g>
</svg>