<?xml version="1.0" encoding="UTF-8"?>
<svg id="Layer_4" data-name="Layer 4" xmlns="http://www.w3.org/2000/svg" viewBox="0 0 100 100">
  <defs>
    <style>
      .cls-1 {
        fill: #462b7e;
        stroke-width: 0px;
      }
    </style>
  </defs>
  <g id="skpIGa.tif">
    <g>
      <path class="cls-1" d="M22.41,88.56c-.75-.14-1.52-.25-2.26-.43-5.85-1.4-10.24-6.08-11.15-12-1.27-8.24,4.48-15.67,12.35-16.78,4.82-.68,9,.72,12.51,4.09.63.6.47.57,1.12.09,2.48-1.85,4.94-3.72,7.43-5.56.39-.29.47-.53.28-1.01-1.81-4.57.59-9.4,5.3-10.75q.73-.21.73-.99c0-1.27,0-2.54,0-3.81,0-.72-.02-.73-.71-.84-4.34-.66-7.77-2.81-10.16-6.47-5.69-8.7-.87-20.4,9.57-22.4,7.95-1.53,15.62,3.8,17.08,11.73,1.5,8.13-4.1,15.95-12.26,17.13-.77.11-.78.12-.78.86,0,1.33.01,2.65-.01,3.98,0,.45.11.65.59.78,3.28.92,5.29,3.08,5.95,6.42.29,1.46.13,2.93-.47,4.3-.21.49-.18.76.26,1.09,2.51,1.85,5.01,3.71,7.49,5.61.45.34.66.24,1-.1,3.26-3.22,7.21-4.63,11.75-4.26,6.17.5,11.53,5.26,12.87,11.32.09.43.2.85.3,1.28v3.81c-.09.4-.19.8-.28,1.2-2.06,9.66-12.98,14.74-21.8,9.5-6.77-4.03-9.07-12.52-5.36-19.49.35-.67.36-.67-.23-1.11-2.45-1.84-4.91-3.66-7.35-5.52-.46-.35-.72-.36-1.18,0-2.89,2.3-6.92,2.3-9.8.01-.46-.36-.72-.39-1.18-.03-2.43,1.86-4.89,3.69-7.34,5.53q-.6.45-.25,1.1c1.51,2.84,2.09,5.84,1.64,9.03-.87,6.04-5.14,10.78-11.06,12.24-.74.18-1.5.3-2.26.45h-2.32ZM44.74,22.96c0-.41,0-.63,0-.85.03-2.71,2.03-5.01,4.64-5.31,2.74-.32,5.23,1.34,5.87,4,.2.82.14,1.69.18,2.54.05,1.17-.31,2.23-.97,3.18-.37.54-.37.55.15.92,1.59,1.12,2.7,2.6,3.18,4.49.19.74.2,1.52.29,2.29.02.15.06.3.09.45.13-.1.26-.18.38-.29.1-.09.2-.19.29-.3,2.54-2.89,3.57-6.25,2.93-10.04-1.1-6.51-7.35-10.82-13.86-9.64-6.93,1.26-11.28,8.45-9.17,15.19.58,1.85,1.55,3.47,2.92,4.84.09.09.21.16.32.24.04-.14.09-.29.1-.43.09-.76.1-1.55.29-2.29.49-1.92,1.61-3.42,3.24-4.55.24-.16.58-.27.26-.68-.92-1.16-1.25-2.5-1.13-3.77ZM84.58,82.53c.23-.19.32-.25.39-.33,2.79-2.92,4.02-6.4,3.3-10.38-.83-4.61-3.53-7.82-8.01-9.28-4.47-1.45-8.54-.48-11.93,2.77-2.95,2.83-4.05,6.38-3.45,10.41.38,2.5,1.52,4.65,3.3,6.45.09.09.22.15.33.22.03-.12.07-.25.08-.37.03-.49,0-1,.09-1.48.38-2.26,1.52-4.05,3.4-5.37.52-.36.47-.35.14-.93-.32-.57-.67-1.17-.79-1.8-.17-.85-.17-1.75-.17-2.63,0-2.67,1.99-4.93,4.57-5.27,2.64-.35,5.24,1.22,5.87,3.78.51,2.09.57,4.23-.85,6.09-.26.35-.17.49.15.7,1.28.83,2.24,1.96,2.88,3.34.58,1.25.79,2.57.7,4.1ZM31.64,82.46c.15-.12.24-.19.31-.27,2.62-2.76,3.81-6,3.38-9.81-.76-6.8-7.28-11.61-14.12-10.22-6.55,1.33-10.66,7.8-9.21,14.2.51,2.24,1.57,4.16,3.18,5.8.09.09.22.14.33.21.02-.13.06-.25.07-.38.03-.49,0-1,.09-1.48.38-2.26,1.51-4.07,3.41-5.36.41-.28.49-.44.19-.89-.38-.56-.72-1.2-.85-1.86-.17-.85-.17-1.75-.17-2.63,0-2.66,1.99-4.93,4.58-5.27,2.71-.36,5.26,1.3,5.91,3.94.2.81.15,1.69.19,2.54.06,1.2-.31,2.28-.99,3.26-.36.51-.35.52.2.91,1.78,1.28,2.94,2.97,3.31,5.15.12.67.14,1.36.21,2.14ZM55.34,53.99c.04-2.82-2.3-5.27-5.16-5.3-2.9-.02-5.26,2.15-5.34,5.19-.08,2.83,2.3,5.24,5.15,5.31,2.85.07,5.31-2.32,5.35-5.2ZM44.77,34.99s.04,0,.06,0c0,.33.04.67,0,.99-.08.56.16.83.68,1.05,1.26.52,2.58.82,3.93.91,1.9.12,3.73-.24,5.47-1.01.27-.12.47-.26.45-.6-.06-1.1.01-2.22-.16-3.29-.39-2.44-2.62-4.24-5.1-4.24-2.47,0-4.67,1.8-5.12,4.23-.12.65-.14,1.31-.2,1.97ZM28.83,82.71s.04,0,.06,0c-.07-.66-.09-1.32-.2-1.97-.44-2.43-2.65-4.23-5.12-4.22-2.47,0-4.69,1.81-5.09,4.24-.16.97-.08,1.98-.16,2.96-.05.57.18.83.69,1.04,3.03,1.22,6.05,1.23,9.1.03.59-.23.82-.56.75-1.17-.04-.3,0-.61,0-.91ZM81.86,82.72s.04,0,.06,0c-.06-.66-.08-1.32-.2-1.97-.44-2.43-2.64-4.23-5.11-4.23-2.47,0-4.7,1.8-5.1,4.24-.16.97-.08,1.98-.17,2.96-.05.56.17.83.68,1.04,2.97,1.2,5.95,1.24,8.94.09.91-.35.9-.36.91-1.38,0-.25,0-.5,0-.74ZM26.21,70.52s-.03,0-.04,0c0-.28.02-.55,0-.83-.13-1.35-1.17-2.37-2.48-2.45-1.25-.08-2.43.82-2.64,2.14-.12.75-.11,1.55.01,2.29.21,1.23,1.33,2.1,2.51,2.1,1.2,0,2.25-.86,2.52-2.1.08-.37.08-.76.11-1.14ZM79.23,70.49s-.03,0-.04,0c0-.28.03-.55,0-.83-.15-1.35-1.21-2.36-2.51-2.42-1.25-.05-2.41.85-2.62,2.17-.11.72-.11,1.49,0,2.21.2,1.23,1.29,2.12,2.48,2.14,1.22.03,2.31-.86,2.58-2.14.08-.37.07-.76.1-1.15ZM47.45,22.78s.03,0,.04,0c0,.28-.02.55,0,.83.13,1.33,1.19,2.37,2.49,2.44,1.24.07,2.42-.84,2.63-2.15.12-.72.12-1.49,0-2.21-.2-1.29-1.32-2.17-2.55-2.16-1.21.01-2.24.86-2.51,2.11-.08.37-.07.76-.11,1.15Z"/>
      <path class="cls-1" d="M78.57,51.19c-.83,0-.83,0-.96-.83-.07-.46-.14-.93-.2-1.39-.05-.32.05-.52.41-.58.6-.1,1.19-.22,1.78-.36.31-.07.47.01.52.33.1.68.21,1.36.32,2.04.05.36-.06.57-.47.6-.47.03-.93.11-1.39.17Z"/>
      <path class="cls-1" d="M21.55,51.14c-.39-.04-.88-.12-1.37-.15-.36-.03-.49-.22-.44-.54.1-.71.2-1.42.34-2.11.03-.14.3-.34.44-.32.62.08,1.24.24,1.86.36.35.07.44.28.39.6-.08.49-.14.98-.22,1.47-.13.75-.13.75-.99.71Z"/>
      <path class="cls-1" d="M25.38,40.99c-.14-.05-.24-.08-.34-.13-.54-.28-1.07-.57-1.61-.84-.31-.15-.39-.34-.21-.65.36-.59.71-1.18,1.04-1.78.2-.35.42-.36.73-.14.47.33.96.64,1.44.96.23.15.39.3.21.6-.36.59-.7,1.18-1.05,1.77-.05.08-.15.14-.22.21Z"/>
      <path class="cls-1" d="M77.09,39.73c-.07.07-.14.19-.24.25-.6.33-1.21.65-1.83.94-.11.05-.38-.05-.45-.16-.36-.55-.68-1.13-1.02-1.69-.14-.23-.13-.41.1-.56.55-.36,1.1-.72,1.65-1.09.22-.15.41-.14.55.11.39.66.78,1.33,1.16,1.99.03.05.04.1.08.22Z"/>
      <path class="cls-1" d="M73.87,34.9c-.06.08-.13.2-.23.28-.49.4-.99.79-1.47,1.19-.24.2-.42.19-.63-.06-.41-.48-.82-.96-1.25-1.42-.2-.22-.23-.42,0-.63.57-.5,1.14-1,1.71-1.5.59.64,1.19,1.29,1.78,1.94.03.04.04.1.08.21Z"/>
      <path class="cls-1" d="M24.3,43.55c-.28.77-.53,1.5-.81,2.22-.03.08-.3.13-.43.09-.61-.16-1.22-.35-1.83-.53-.3-.09-.4-.27-.3-.56.24-.67.5-1.34.72-2.02.11-.32.31-.36.58-.25.59.24,1.18.47,1.76.73.13.06.21.21.31.32Z"/>
      <path class="cls-1" d="M34.16,31.04c-.07.09-.13.21-.23.29-.52.41-1.05.8-1.57,1.21-.21.16-.38.19-.56-.03-.42-.51-.85-1.01-1.28-1.51-.18-.21-.18-.39.05-.56.59-.45,1.18-.91,1.77-1.36.21-.17.4-.16.56.07.38.54.76,1.08,1.13,1.63.05.07.08.15.14.26Z"/>
      <path class="cls-1" d="M79.32,44.96c-.1.13-.17.26-.28.36-.08.07-.2.09-.31.11-.66.16-1.32.31-1.98.46-.28-.72-.57-1.43-.81-2.15-.04-.12.09-.39.21-.45.62-.29,1.26-.55,1.91-.78.1-.04.35.07.39.17.3.74.57,1.49.87,2.28Z"/>
      <path class="cls-1" d="M68.08,32.72c-.11-.07-.21-.13-.29-.19-.5-.39-.99-.78-1.5-1.16-.25-.19-.28-.37-.1-.62.37-.51.73-1.03,1.09-1.55.18-.27.38-.27.61-.09.56.44,1.13.87,1.7,1.31.19.15.3.32.1.55-.45.52-.89,1.05-1.34,1.57-.07.08-.17.12-.26.18Z"/>
      <path class="cls-1" d="M28.31,36.53c-.1-.06-.17-.09-.24-.14-.52-.41-1.03-.82-1.55-1.23-.25-.2-.25-.39-.04-.62.48-.53.95-1.06,1.42-1.6.21-.23.4-.24.62-.01.44.45.92.87,1.34,1.34.1.11.13.43.05.54-.42.54-.89,1.04-1.35,1.55-.07.08-.17.12-.25.17Z"/>
      <path class="cls-1" d="M80.62,55.21c-.01.29-.04.62-.04.95,0,.51-.26.67-.74.61-.54-.07-1.09-.12-1.64-.16-.35-.03-.47-.23-.45-.56.04-.6.07-1.21.14-1.81.02-.13.21-.33.34-.34.6-.08,1.21-.09,1.81-.14.44-.04.59.17.57.59-.02.27,0,.55,0,.86Z"/>
      <path class="cls-1" d="M19.56,55.19c0-1.59-.15-1.22,1.22-1.39,1.43-.18,1.43-.14,1.54,1.3.1,1.4.09,1.36-1.3,1.55-1.3.18-1.41.4-1.45-1.3,0-.05,0-.11,0-.16Z"/>
      <path class="cls-1" d="M53.63,81.99c-.13-.38.11-.58.65-.6.41-.02.82-.1,1.21-.21.44-.13.6.07.68.45.12.56.24,1.12.37,1.68.08.35-.08.52-.4.57-.59.1-1.19.18-1.78.28-.38.07-.47-.12-.51-.45-.05-.52-.13-1.03-.22-1.72Z"/>
      <path class="cls-1" d="M46.51,81.94c-.09.71-.16,1.25-.22,1.8-.03.29-.14.47-.47.42-.62-.11-1.25-.21-1.87-.32-.32-.05-.4-.25-.34-.54.13-.59.26-1.18.39-1.77.08-.38.29-.47.66-.36.4.11.81.19,1.22.21.49.03.74.19.63.55Z"/>
      <path class="cls-1" d="M61.58,82.06c-.12.11-.19.24-.3.28-.62.24-1.24.44-1.86.67-.28.11-.41-.02-.49-.27-.19-.6-.38-1.21-.56-1.81-.08-.28,0-.47.3-.57.52-.17,1.03-.38,1.56-.55.11-.04.34-.02.37.04.34.72.65,1.45.99,2.21Z"/>
      <path class="cls-1" d="M41.86,80.71c-.25.76-.48,1.5-.75,2.22-.02.07-.3.1-.43.06-.58-.18-1.14-.4-1.71-.6-.27-.1-.42-.25-.29-.56.24-.58.46-1.18.74-1.75.07-.14.35-.31.49-.27.58.16,1.15.39,1.71.62.1.04.16.19.25.29Z"/>
      <path class="cls-1" d="M50.06,84.47c-1.53-.03-1.35.19-1.32-1.39.02-1.34.03-1.34,1.42-1.35q1.19,0,1.25,1.21c0,.06,0,.11,0,.17.03,1.56.17,1.33-1.35,1.36Z"/>
    </g>
  </g>
</svg>