<?xml version="1.0" encoding="UTF-8"?>
<svg id="Layer_1" data-name="Layer 1" xmlns="http://www.w3.org/2000/svg" viewBox="0 0 174.27 35.81">
  <defs>
    <style>
      .cls-1 {
        fill: #e8648a;
      }

      .cls-1, .cls-2, .cls-3, .cls-4, .cls-5, .cls-6, .cls-7, .cls-8, .cls-9 {
        stroke-width: 0px;
      }

      .cls-2 {
        fill: #7aaadd;
      }

      .cls-3 {
        fill: #f8f3ff;
      }

      .cls-4 {
        fill: #efdcac;
      }

      .cls-5 {
        fill: #f7ca3c;
      }

      .cls-6 {
        fill: #ef3a6e;
      }

      .cls-7 {
        fill: #4c8dd3;
      }

      .cls-8 {
        fill: #430684;
      }

      .cls-9 {
        fill: #e3d4f9;
      }
    </style>
  </defs>
  <g>
    <path class="cls-8" d="M55.45,3.14c0-.56.34-.75.75-.75h2.48c2.3,0,3.5.86,3.5,3.05,0,1.28-.5,2.08-1.26,2.55l1.42,4.22c.21.62-.15.7-.51.7h-1.32c-.44,0-.69-.29-.81-.72l-.94-3.23h-.87v3.2c0,.56-.34.75-.75.75h-.95c-.41,0-.75-.19-.75-.75V3.14ZM58.51,6.99c.63,0,1.16-.25,1.16-1.3,0-1.16-.51-1.25-1.1-1.25h-.67v2.55h.62Z"/>
    <path class="cls-8" d="M65.21,3.12c.12-.57.47-.73.91-.73h1.7c.44,0,.79.16.91.72l1.99,9.09c.15.66-.21.72-.59.72h-1.17c-.43,0-.63-.16-.73-.73l-.26-1.54h-1.99l-.25,1.54c-.09.57-.29.73-.72.73h-1.14c-.38,0-.73-.06-.59-.73l1.94-9.06ZM67.62,8.56l-.65-3.78h-.04l-.62,3.78h1.31Z"/>
    <path class="cls-8" d="M72.09,3.14c0-.56.34-.75.75-.75h.97c.41,0,.75.19.75.75v9.03c0,.56-.34.75-.75.75h-.97c-.41,0-.75-.19-.75-.75V3.14Z"/>
    <path class="cls-8" d="M76.47,3.14c0-.56.34-.75.75-.75h1.06c.45,0,.87.28,1.04.67l2.01,4.55h.03V3.14c0-.56.34-.75.75-.75h.7c.41,0,.75.19.75.75v9.03c0,.56-.34.75-.75.75h-.87c-.45,0-.72-.28-.91-.67l-2.36-5.15h-.03v5.07c0,.56-.34.75-.75.75h-.67c-.41,0-.75-.19-.75-.75V3.14Z"/>
    <path class="cls-8" d="M85.46,3.14c0-.56.34-.75.75-.75h2.27c2.55,0,3.67.84,3.67,2.79,0,1.06-.47,1.82-1.36,2.21v.03c1.03.35,1.58,1.09,1.58,2.4,0,2.52-1.73,3.09-3.87,3.09h-2.29c-.41,0-.75-.19-.75-.75V3.14ZM88.61,6.57c.66,0,1.04-.32,1.04-1.11,0-.75-.42-.97-1.04-.97h-.75v2.08h.75ZM88.67,10.82c.89,0,1.2-.37,1.2-1.19,0-.89-.48-1.19-1.19-1.19h-.82v2.38h.81Z"/>
    <path class="cls-8" d="M93.6,7.67c0-3.24.85-5.41,3.72-5.41s3.72,2.17,3.72,5.41-1.04,5.38-3.72,5.38-3.72-2.02-3.72-5.38ZM98.54,7.67c0-2.48-.32-3.39-1.22-3.39s-1.22.91-1.22,3.39.37,3.37,1.22,3.37,1.22-.78,1.22-3.37Z"/>
    <path class="cls-8" d="M101.88,3.12c-.13-.67.22-.73.6-.73h1.01c.43,0,.78.18.85.73l.73,5.51h.03l.79-5.51c.07-.56.42-.73.85-.73h.88c.42,0,.78.18.85.73l.75,5.47h.03l.76-5.47c.07-.56.43-.73.85-.73h.92c.38,0,.73.06.6.73l-1.79,9.06c-.12.57-.46.73-.89.73h-.94c-.43,0-.78-.18-.85-.73l-.78-5.35h-.03l-.7,5.35c-.07.56-.42.73-.85.73h-.98c-.44,0-.78-.16-.89-.73l-1.8-9.06Z"/>
    <path class="cls-8" d="M117.08,3.14c0-.56.34-.75.75-.75h4.49c.56,0,.75.34.75.75v.63c0,.41-.19.75-.75.75h-2.79v1.96h1.91c.56,0,.75.34.75.75v.57c0,.41-.19.75-.75.75h-1.91v3.62c0,.56-.34.75-.75.75h-.95c-.41,0-.75-.19-.75-.75V3.14Z"/>
    <path class="cls-8" d="M125,3.12c.12-.57.47-.73.91-.73h1.7c.44,0,.79.16.91.72l1.99,9.09c.15.66-.21.72-.59.72h-1.17c-.43,0-.63-.16-.73-.73l-.26-1.54h-1.99l-.25,1.54c-.09.57-.29.73-.72.73h-1.14c-.38,0-.73-.06-.59-.73l1.94-9.06ZM127.41,8.56l-.65-3.78h-.04l-.62,3.78h1.3Z"/>
    <path class="cls-8" d="M131.88,3.14c0-.56.34-.75.75-.75h1.63c.44,0,.79.16.91.72l1.17,5.37h.03l1.25-5.37c.13-.56.48-.72.92-.72h1.54c.41,0,.75.19.75.75v9.03c0,.56-.34.75-.75.75h-.67c-.41,0-.75-.19-.75-.75v-5.79h-.03l-1.25,5.81c-.09.43-.32.73-.76.73h-.5c-.44,0-.67-.31-.76-.72l-1.28-5.82h-.03v5.79c0,.56-.34.75-.75.75h-.67c-.41,0-.75-.19-.75-.75V3.14Z"/>
    <path class="cls-8" d="M142.73,3.14c0-.56.34-.75.75-.75h.97c.41,0,.75.19.75.75v9.03c0,.56-.34.75-.75.75h-.97c-.41,0-.75-.19-.75-.75V3.14Z"/>
    <path class="cls-8" d="M147.11,3.14c0-.56.34-.75.75-.75h.95c.41,0,.75.19.75.75v7.65h2.6c.56,0,.75.34.75.75v.63c0,.41-.19.75-.75.75h-4.3c-.41,0-.75-.19-.75-.75V3.14Z"/>
    <path class="cls-8" d="M154.18,3.14c0-.56.34-.75.75-.75h.97c.41,0,.75.19.75.75v9.03c0,.56-.34.75-.75.75h-.97c-.41,0-.75-.19-.75-.75V3.14Z"/>
    <path class="cls-8" d="M158.55,3.14c0-.56.34-.75.75-.75h4.41c.56,0,.75.34.75.75v.63c0,.41-.19.75-.75.75h-2.71v1.96h1.85c.56,0,.75.34.75.75v.57c0,.41-.19.75-.75.75h-1.85v2.24h2.84c.56,0,.75.34.75.75v.63c0,.41-.19.75-.75.75h-4.55c-.41,0-.75-.19-.75-.75V3.14Z"/>
    <path class="cls-8" d="M166.32,10.06l.88-.16c.66-.12.69.18.88.59.19.38.5.6,1,.6.54,0,.95-.28.95-.85,0-1.95-4.21-1.69-4.21-5.22,0-1.64,1.19-2.76,3.11-2.76,1.69,0,2.58.73,3.05,1.96.15.35.22.72-.45.85l-.79.16c-.6.12-.66-.16-.92-.56-.19-.28-.46-.47-.84-.47-.48,0-.79.28-.79.72,0,1.86,4.19,1.61,4.19,5.13,0,1.91-1.33,2.99-3.4,2.99-1.75,0-2.73-.67-3.17-2.14-.12-.37-.18-.72.51-.85Z"/>
  </g>
  <g>
    <path class="cls-8" d="M55.48,17.12c0-.92.56-1.24,1.24-1.24h3.95c4.05,0,6.08,1.72,6.08,5.52s-2.21,5.65-5.99,5.65h-1.24v4.99c0,.92-.56,1.24-1.24,1.24h-1.58c-.68,0-1.24-.31-1.24-1.24v-14.93ZM60.88,23.64c.9,0,1.7-.56,1.7-2.23,0-1.45-.73-2.01-1.72-2.01h-1.33v4.24h1.36Z"/>
    <path class="cls-8" d="M69.8,17.12c0-.92.56-1.24,1.24-1.24h1.58c.68,0,1.24.31,1.24,1.24v12.65h4.29c.92,0,1.24.56,1.24,1.24v1.04c0,.68-.31,1.24-1.24,1.24h-7.1c-.68,0-1.24-.31-1.24-1.24v-14.93Z"/>
    <path class="cls-8" d="M84.41,17.1c.19-.94.78-1.21,1.5-1.21h2.81c.73,0,1.31.27,1.5,1.19l3.29,15.02c.24,1.09-.34,1.19-.97,1.19h-1.94c-.7,0-1.04-.27-1.21-1.21l-.44-2.54h-3.29l-.41,2.54c-.15.94-.48,1.21-1.19,1.21h-1.89c-.63,0-1.21-.1-.97-1.21l3.2-14.98ZM88.38,26.09l-1.07-6.25h-.07l-1.02,6.25h2.16Z"/>
    <path class="cls-8" d="M97.88,26.55l-3.85-9.52c-.39-.97.17-1.14.78-1.14h2.04c.73,0,1.09.27,1.38,1.16l1.67,5.02h.05l1.77-5.02c.31-.9.68-1.16,1.41-1.16h1.99c.61,0,1.16.17.78,1.14l-3.9,9.52v5.5c0,.92-.56,1.24-1.24,1.24h-1.62c-.68,0-1.24-.31-1.24-1.24v-5.5Z"/>
    <path class="cls-8" d="M108.44,17.12c0-.92.56-1.24,1.24-1.24h3.59c4.7,0,7.1,2.28,7.1,8.46,0,5.6-1.89,8.94-7.03,8.94h-3.66c-.68,0-1.24-.31-1.24-1.24v-14.93ZM113.55,29.63c1.91,0,2.67-1.75,2.67-5.21,0-3.8-.97-4.87-2.69-4.87h-.94v10.08h.97Z"/>
    <path class="cls-8" d="M125.67,17.1c.19-.94.78-1.21,1.5-1.21h2.81c.73,0,1.31.27,1.5,1.19l3.29,15.02c.24,1.09-.34,1.19-.97,1.19h-1.94c-.7,0-1.04-.27-1.21-1.21l-.44-2.54h-3.29l-.41,2.54c-.15.94-.48,1.21-1.19,1.21h-1.89c-.63,0-1.21-.1-.97-1.21l3.2-14.98ZM129.64,26.09l-1.07-6.25h-.07l-1.02,6.25h2.16Z"/>
    <path class="cls-8" d="M138.75,19.4h-2.04c-.92,0-1.24-.56-1.24-1.24v-1.04c0-.68.31-1.24,1.24-1.24h8.12c.92,0,1.24.56,1.24,1.24v1.04c0,.68-.32,1.24-1.24,1.24h-2.04v12.65c0,.92-.56,1.24-1.24,1.24h-1.58c-.68,0-1.24-.31-1.24-1.24v-12.65Z"/>
    <path class="cls-8" d="M148.88,17.12c0-.92.56-1.24,1.24-1.24h7.29c.92,0,1.24.56,1.24,1.24v1.04c0,.68-.31,1.24-1.24,1.24h-4.48v3.25h3.05c.92,0,1.24.56,1.24,1.24v.95c0,.68-.31,1.24-1.24,1.24h-3.05v3.71h4.7c.92,0,1.24.56,1.24,1.24v1.04c0,.68-.32,1.24-1.24,1.24h-7.51c-.68,0-1.24-.31-1.24-1.24v-14.93Z"/>
    <path class="cls-8" d="M162.35,28.56l1.45-.27c1.09-.19,1.14.29,1.45.97.32.63.82.99,1.65.99.9,0,1.58-.46,1.58-1.41,0-3.22-6.95-2.79-6.95-8.63,0-2.71,1.96-4.56,5.14-4.56,2.79,0,4.26,1.21,5.04,3.25.24.58.36,1.19-.75,1.41l-1.31.27c-.99.19-1.09-.27-1.53-.92-.32-.46-.75-.78-1.38-.78-.8,0-1.31.46-1.31,1.19,0,3.08,6.93,2.67,6.93,8.48,0,3.15-2.21,4.94-5.62,4.94-2.88,0-4.51-1.12-5.23-3.54-.19-.61-.29-1.19.85-1.41Z"/>
  </g>
  <g>
    <path class="cls-6" d="M45.16,22.4c-1.25-.74-3.06-.72-4.27.1C38.82,3.48,12.9,1.98,8.66,20.55h0c-1.17.33-2.13,1.16-2.63,2.05-.73.04-1.4.25-1.97.58,1.9-26.36,38.32-27,41.1-.77Z"/>
    <path class="cls-3" d="M20.37,26.22c0,2.36-1.84,4.3-4.12,4.36-1.68,2.98-5.9,2.91-7.49-.18-2.73,2.22-6.86.2-6.86-3.44,0-2.31,1.75-4.24,4.12-4.36,1.73-3.05,6.05-2.8,7.49.18,2.73-2.18,6.87-.25,6.86,3.44Z"/>
    <path class="cls-9" d="M16.25,30.58c-1.68,2.98-5.9,2.91-7.49-.18-2.73,2.22-6.86.2-6.86-3.44,0-1.71.99-3.3,2.53-3.97-1.88,4.08,2.98,8.09,6.46,5.28,1.04,2.02,3.5,2.88,5.35,2.32Z"/>
    <path class="cls-3" d="M47.36,26.22c0,2.36-1.84,4.29-4.12,4.36-1.68,2.98-5.9,2.91-7.49-.18-2.73,2.22-6.86.2-6.86-3.45,0-2.09,1.46-3.89,3.44-4.27.22-.05.45-.08.68-.09,1.57-2.97,6.06-2.84,7.49.18.13-.1.26-.2.39-.28,2.72-1.81,6.56.43,6.47,3.72Z"/>
    <path class="cls-9" d="M47.36,26.22c0,2.36-1.84,4.3-4.12,4.36-1.68,2.98-5.9,2.91-7.49-.18-3.08,2.57-7.75-.57-6.73-4.5.71,2.94,4.28,4.36,6.73,2.36,1.58,3.1,5.8,3.17,7.49.18,1.92-.06,3.54-1.45,3.98-3.3.09.34.13.7.13,1.07Z"/>
    <path class="cls-5" d="M40.89,22.5c-.13.08-.26.17-.39.28-.8-1.58-2.52-2.58-4.32-2.34-3.79-12.29-20.93-11.33-23.41,1.29-.95-1.04-2.66-1.62-4.11-1.19C12.91,1.97,38.83,3.5,40.89,22.5Z"/>
    <path class="cls-7" d="M36.18,20.44c-1.34.16-2.51.98-3.17,2.15-.23,0-.46.04-.68.09-1.51-8.42-12.99-8.93-15.24-.7-1.19-.29-2.51-.07-3.58.8-.18-.38-.43-.73-.74-1.04,2.48-12.63,19.63-13.57,23.41-1.29Z"/>
    <path class="cls-1" d="M25.69,2.97C15.42,3.52,7.12,11.82,6.26,22.25c-.09.11-.16.23-.23.34-.73.04-1.4.25-1.97.58C4.51,11.58,14.26,2.34,25.69,2.97Z"/>
    <path class="cls-4" d="M24.63,7.31c.35,0,.7.01,1.04.04-7.33.5-13.35,6.04-14.87,13.21-.67-.21-1.47-.2-2.14-.01,1.58-7.54,8.15-13.24,15.97-13.24Z"/>
    <path class="cls-2" d="M28.89,12.47c-6.12-.78-11.82,3.5-13.16,9.41-.77.07-1.55.36-2.22.9-.18-.38-.43-.73-.74-1.04,1.18-7.26,9.23-12.08,16.11-9.27Z"/>
    <path class="cls-8" d="M45.83,22.01C42.67-4.59,5.55-3.99,3.38,22.78c-5.07,3.66-.44,11.57,5.18,8.63,1.86,2.79,6.34,2.73,8.12-.14,5.06-.58,6.06-7.85,1.31-9.73,2.4-6.66,11.79-6.19,13.53.66-6.56,2.66-2.39,12.41,4.04,9.22,1.86,2.79,6.34,2.73,8.12-.14,4.54-.47,6.03-6.76,2.18-9.26ZM39.85,20.86c-.88-.74-2.01-1.16-3.16-1.16-4.31-11.95-20.82-11.43-24.35.77-.83-.5-1.76-.77-2.73-.77,4.83-16.16,26.79-15.18,30.33,1.23-.03-.03-.07-.05-.1-.08ZM24.64,3.66c9.95,0,18.39,7.67,19.7,17.65-.94-.25-1.94-.17-2.85.12C38.12,2.55,12.97,1.44,8.06,20.02c-.59.25-1.16.56-1.63,1.01-.17.09-.32.28-.42.39-.04.04-.07.1-.1.15-.1.12-.21.24-.3.37-.26.03-.51.1-.77.16C5.83,11.67,14.32,3.66,24.64,3.66ZM19.66,26.23c0,1.96-1.54,3.59-3.43,3.65-.25,0-.48.14-.6.36-1.3,2.49-5.04,2.38-6.23-.16-.1-.19-.28-.33-.49-.37-.21-.04-.43,0-.59.14-1.05.85-2.4,1-3.63.42-2.6-1.12-2.75-5.16-.27-6.48.5-.29,1.06-.45,1.65-.48.24-.01.46-.15.58-.36.47-.82,1.34-1.47,2.26-1.72,1.54-.41,3.28.45,3.97,1.86.13.27.45.46.75.38.71-.3,1.23-.84,2.09-.87,1.97-.17,3.89,1.14,3.95,3.63ZM24.64,15.34c-3.63,0-6.85,2.37-8.04,5.85-.99-.1-1.99.11-2.86.59-.06-.08-.12-.16-.18-.23,2.52-11.25,17.57-12.39,21.7-1.62-.96.3-1.81.91-2.43,1.69-1.03-3.69-4.34-6.28-8.19-6.28ZM43.22,29.88c-.25,0-.48.14-.6.36-.66,1.17-1.85,1.86-3.14,1.83-1.32-.03-2.47-.77-3.09-1.98-.1-.19-.28-.33-.49-.37-.21-.04-.43,0-.59.14-2.21,1.92-5.82-.03-5.7-2.9,0-1.75,1.2-3.25,2.89-3.58.17-.04.36-.06.54-.07.44,0,.61-.41.83-.72,1.48-2.14,4.88-1.86,6.01.51.35.63.97.36,1.41,0,2.26-1.5,5.48.42,5.37,3.13,0,1.96-1.54,3.59-3.43,3.65Z"/>
  </g>
</svg>